<?xml version="1.0" encoding="UTF-8" standalone="no"?>
<svg
   xmlns:dc="http://purl.org/dc/elements/1.1/"
   xmlns:cc="http://creativecommons.org/ns#"
   xmlns:rdf="http://www.w3.org/1999/02/22-rdf-syntax-ns#"
   xmlns:svg="http://www.w3.org/2000/svg"
   xmlns="http://www.w3.org/2000/svg"
   xmlns:sodipodi="http://sodipodi.sourceforge.net/DTD/sodipodi-0.dtd"
   xmlns:inkscape="http://www.inkscape.org/namespaces/inkscape"
   version="1.1"
   id="svg2"
   viewBox="0 0 255.99999 256"
   height="256"
   width="256"
   inkscape:version="0.91 r13725"
   sodipodi:docname="lightgreen_otaku_icon.svg">
  <sodipodi:namedview
     pagecolor="#ffffff"
     bordercolor="#666666"
     borderopacity="1"
     objecttolerance="10"
     gridtolerance="10"
     guidetolerance="10"
     inkscape:pageopacity="0"
     inkscape:pageshadow="2"
     inkscape:window-width="958"
     inkscape:window-height="1048"
     id="namedview4238"
     showgrid="false"
     units="px"
     inkscape:zoom="2.2099227"
     inkscape:cx="80.902226"
     inkscape:cy="145.60463"
     inkscape:window-x="0"
     inkscape:window-y="30"
     inkscape:window-maximized="1"
     inkscape:current-layer="svg2" />
  <defs
     id="defs4" />
  <metadata
     id="metadata7">
    <rdf:RDF>
      <cc:Work
         rdf:about="">
        <dc:format>image/svg+xml</dc:format>
        <dc:type
           rdf:resource="http://purl.org/dc/dcmitype/StillImage" />
        <dc:title></dc:title>
      </cc:Work>
    </rdf:RDF>
  </metadata>
  <path
     inkscape:connector-curvature="0"
     style="color:#000000;clip-rule:nonzero;display:inline;overflow:visible;visibility:visible;opacity:1;isolation:auto;mix-blend-mode:normal;color-interpolation:sRGB;color-interpolation-filters:linearRGB;solid-color:#000000;solid-opacity:1;fill:#7fb24e;fill-opacity:1;fill-rule:nonzero;stroke:none;stroke-width:1;stroke-linecap:butt;stroke-linejoin:miter;stroke-miterlimit:4;stroke-dasharray:none;stroke-dashoffset:0;stroke-opacity:1;color-rendering:auto;image-rendering:auto;shape-rendering:auto;text-rendering:auto;enable-background:accumulate"
     d="M 127.99997,9.4505078e-6 A 109.74348,105.91522 0 0 0 19.185806,92.936615 a 115.35826,111.01957 0 0 0 -6.545312,36.452965 115.35826,111.01957 0 0 0 17.946239,59.40491 169.27707,157.72724 0 0 0 -104.85072,67.20552 l 404.527967,0 A 169.27707,157.72724 0 0 0 225.26324,188.85763 115.35826,111.01957 0 0 0 243.35946,129.38958 115.35826,111.01957 0 0 0 236.75892,92.747106 109.74348,105.91522 0 0 0 127.99997,9.4505078e-6 Z"
     id="rect4415-7" />
  <path
     style="color:#000000;clip-rule:nonzero;display:inline;overflow:visible;visibility:visible;opacity:1;isolation:auto;mix-blend-mode:normal;color-interpolation:sRGB;color-interpolation-filters:linearRGB;solid-color:#000000;solid-opacity:1;fill:#a3c77f;fill-opacity:1;fill-rule:nonzero;stroke:none;stroke-width:1;stroke-linecap:butt;stroke-linejoin:miter;stroke-miterlimit:4;stroke-dasharray:none;stroke-dashoffset:0;stroke-opacity:1;color-rendering:auto;image-rendering:auto;shape-rendering:auto;text-rendering:auto;enable-background:accumulate"
     d="M 44.949219 33.017578 A 113.63395 110.59559 0 0 0 17.308594 84.189453 L 238.69531 84.189453 A 113.63395 110.59559 0 0 0 210.92383 33.017578 L 44.949219 33.017578 z M 79.457031 90.324219 A 19.851254 19.851254 0 0 0 59.605469 110.17578 A 19.851254 19.851254 0 0 0 79.457031 130.02734 A 19.851254 19.851254 0 0 0 99.308594 110.17578 A 19.851254 19.851254 0 0 0 79.457031 90.324219 z M 176.54883 90.324219 A 19.851254 19.851254 0 0 0 156.69727 110.17578 A 19.851254 19.851254 0 0 0 176.54883 130.02734 A 19.851254 19.851254 0 0 0 196.39844 110.17578 A 19.851254 19.851254 0 0 0 176.54883 90.324219 z M 28.296875 187.68164 A 169.27707 157.72724 2.424972 0 0 -19.201172 203.11719 L -31.273438 256 L 12.703125 256 L 28.296875 187.68164 z M 227.71094 187.68164 L 243.30469 256 L 287.28125 256 L 275.20898 203.11719 A 157.72724 169.27707 87.575028 0 0 227.71094 187.68164 z "
     transform="translate(-7.6293945e-6,0)"
     id="path4174" />
</svg>
